<svg width="183" height="96" viewBox="0 0 183 96" fill="none" xmlns="http://www.w3.org/2000/svg">
<path fill-rule="evenodd" clip-rule="evenodd" d="M19.4376 31.1869H25.1647C25.5118 31.1869 25.8589 31.5353 25.8589 31.8838V36.588H30.5447C31.0654 36.588 31.4125 36.9364 31.4125 37.4591V43.2087C31.4125 43.5571 31.0654 43.9056 30.5447 43.9056H25.8589V48.6098C25.8589 49.1325 25.5118 49.4809 25.1647 49.4809H19.4376C18.9169 49.4809 18.5698 49.1325 18.5698 48.6098V43.9056H13.884C13.5369 43.9056 13.1898 43.5571 13.1898 43.2087V37.4591C13.1898 36.9364 13.5369 36.588 13.884 36.588H18.5698V31.8838C18.5698 31.5353 18.9169 31.1869 19.4376 31.1869Z" fill="#ED3237"/>
<path fill-rule="evenodd" clip-rule="evenodd" d="M20.3051 71.9565H21.1729L23.2555 77.7061H22.0406L21.6935 76.4865H19.4374L19.0903 77.7061H17.7019L19.7845 72.305C19.7845 71.9565 19.958 71.9565 20.3051 71.9565ZM83.3034 26.1344C85.386 25.9602 87.4686 26.3086 89.2041 27.0055C91.1131 27.8767 92.328 28.7478 93.5428 29.7932C94.0635 30.3159 94.7577 31.0128 95.2783 31.7097C95.799 32.2324 96.1461 33.1035 96.6667 33.8004C97.3609 35.5427 97.8815 37.285 98.0551 39.3758C98.5757 47.3903 92.328 54.011 85.0389 54.3594C76.8821 54.8821 70.6344 48.7841 70.1137 41.118C69.5931 33.1035 75.8408 26.6571 83.3034 26.1344ZM72.8905 20.0364C72.0227 20.3848 70.4608 21.4302 69.7666 21.9529C68.8989 22.6498 67.8576 23.3467 67.1634 24.0436L65.4279 25.9602C64.5601 27.0055 63.6924 28.2251 63.1717 29.4447C61.9569 31.8839 61.0892 33.8004 60.5685 36.5881C58.4859 49.3068 67.684 61.5028 81.2208 63.0709C90.2454 64.1162 99.2699 59.9347 103.956 52.7914C107.6 47.3903 108.989 40.5954 106.906 33.9747C106.038 31.3612 105.171 29.4447 103.782 27.5282C102.567 25.4375 101.873 25.089 100.485 23.6952C100.138 23.3467 99.4435 22.824 99.2699 22.6498C98.7493 22.3014 98.5757 21.9529 98.0551 21.6044C96.6667 20.7333 95.4519 20.0364 93.8899 19.3395C89.3776 17.4229 83.9976 16.726 79.1383 17.7714C77.7499 18.1199 73.5847 19.3395 72.8905 20.0364ZM132.765 62.1997C128.947 61.8513 125.302 60.9801 121.137 58.1925C118.881 56.7986 116.625 54.3594 115.41 52.0945C113.848 49.3068 112.807 46.5191 112.46 42.8603C111.765 35.5427 114.022 29.0963 119.055 24.2179C119.402 23.8694 119.575 23.6952 119.922 23.521C120.443 22.9983 120.964 22.6498 121.658 22.1271C122.352 21.7787 122.873 21.4302 123.567 21.0818C123.914 20.9075 125.476 20.2106 125.649 20.0364C126.517 19.8621 127.558 19.3395 128.426 19.1652C129.467 18.991 130.335 18.6425 131.55 18.4683C133.286 18.2941 135.195 18.2941 137.104 18.2941H137.798H149.946V22.6498C149.946 25.089 148.037 27.0055 145.608 27.0055H136.236C133.112 27.1798 131.203 27.354 128.426 28.922C123.393 31.8839 120.616 38.3304 122.699 44.2542C123.74 48.0872 126.517 50.7006 129.641 52.2687C131.55 53.1398 133.633 53.4883 135.889 53.4883C139.186 53.4883 142.31 53.4883 145.608 53.4883C148.037 53.4883 149.946 55.579 149.946 57.844V62.3739C144.393 62.3739 138.318 62.5482 132.765 62.1997ZM155.153 21.0818C152.723 25.4375 157.062 30.3159 161.748 28.3994C163.31 27.7024 164.871 25.9602 164.871 23.521C164.871 20.0364 161.921 18.8168 161.748 18.6425C160.012 18.2941 159.318 17.9456 157.582 18.6425C156.541 19.1652 155.5 20.0364 155.153 21.0818ZM159.665 32.9293H155.153V57.6698C155.153 60.2832 157.235 62.3739 159.665 62.3739H164.177V37.4592C164.177 35.02 162.095 32.9293 159.665 32.9293ZM38.1807 61.8513C41.131 61.3286 43.9078 60.2832 47.0317 58.1925C49.2878 56.7986 51.544 54.3594 52.9324 52.0945C54.3207 49.3068 55.362 46.5191 55.7091 42.8603C56.5769 35.5427 54.1472 29.0963 49.1143 24.2179C48.9407 23.8694 48.5936 23.6952 48.2465 23.521C47.7259 22.9983 47.2052 22.6498 46.511 22.1271C45.9904 21.7787 45.2962 21.4302 44.602 21.0818C43.3872 20.3848 41.131 19.5137 39.7426 19.1652C38.7013 18.991 37.8336 18.6425 36.7923 18.4683C34.8833 18.2941 32.9742 18.2941 31.0652 18.2941H30.371H18.2226V22.6498C18.2226 25.089 20.1316 27.0055 22.5613 27.0055H31.9329C35.0568 27.1798 36.9658 27.354 39.7426 28.922C44.7756 31.8839 47.5523 38.3304 45.6433 44.2542C44.4285 48.0872 41.8252 50.7006 38.5278 52.2687C36.7923 53.1398 34.7097 53.4883 32.28 53.4883C29.1561 53.4883 25.8587 53.4883 22.5613 53.4883C20.1316 53.4883 18.2226 55.579 18.2226 57.844V62.3739H34.3626C34.3626 62.1997 37.66 61.8513 38.1807 61.8513ZM160.012 77.7061V72.4792C160.012 72.305 160.186 72.1307 160.359 72.1307C160.359 71.9565 160.533 71.9565 160.706 71.9565H164.351V72.8277H161.227V74.0473H163.483V74.57C163.483 74.7442 163.483 74.7442 163.31 74.9184C163.31 75.0926 163.136 75.0926 162.962 75.0926H161.227V76.6607H164.351V77.7061H160.012ZM152.723 77.7061V72.4792C152.723 72.305 152.723 72.1307 152.897 72.1307C152.897 71.9565 153.07 71.9565 153.244 71.9565H155.5C156.02 71.9565 156.541 71.9565 156.888 72.305C157.235 72.4792 157.409 73.0019 157.409 73.5246C157.409 73.873 157.235 74.2215 157.062 74.3957C156.888 74.57 156.715 74.7442 156.541 74.9184C156.715 74.9184 156.888 75.0926 157.062 75.2669C157.062 75.4411 157.235 75.7896 157.235 76.138V76.8349C157.235 77.0092 157.235 77.0092 157.235 77.0092C157.235 77.1834 157.235 77.1834 157.235 77.3576C157.235 77.5318 157.409 77.7061 157.409 77.7061H156.194C156.02 77.5318 156.02 77.5318 156.02 77.3576C156.02 77.1834 156.02 77.0092 156.02 77.0092V76.3122C156.02 75.9638 155.847 75.7896 155.847 75.6153C155.673 75.4411 155.5 75.4411 155.153 75.4411H153.938V77.7061H152.723ZM153.938 74.3957H155.326C155.5 74.3957 155.847 74.3957 155.847 74.2215C156.02 74.0473 156.194 73.873 156.194 73.6988C156.194 73.3503 156.02 73.1761 155.847 73.0019C155.847 73.0019 155.673 72.8277 155.326 72.8277H153.938V74.3957ZM146.996 71.9565H147.864L149.946 77.7061H148.731L148.384 76.4865H146.128L145.608 77.7061H144.393L146.302 72.305C146.475 71.9565 146.649 71.9565 146.996 71.9565ZM147.169 73.0019L146.302 75.4411H148.037L147.169 73.0019ZM141.789 75.6153C141.616 76.3122 141.442 76.8349 140.922 77.1834C140.575 77.7061 139.88 77.8803 139.186 77.8803C138.318 77.8803 137.624 77.5318 137.104 77.0092C136.757 76.4865 136.409 75.7896 136.409 74.7442C136.409 73.6988 136.757 73.0019 137.104 72.4792C137.624 71.9565 138.318 71.7823 139.36 71.7823C140.054 71.7823 140.575 71.9565 141.095 72.305C141.442 72.6534 141.616 73.1761 141.789 73.873H141.095C140.748 73.873 140.575 73.6988 140.401 73.3503C140.401 73.3503 140.228 73.1761 140.228 73.0019C139.88 72.8277 139.707 72.8277 139.36 72.8277C138.839 72.8277 138.318 73.0019 138.145 73.3503C137.798 73.6988 137.624 74.2215 137.624 74.7442C137.624 75.4411 137.798 75.9638 138.145 76.3122C138.318 76.6607 138.666 76.8349 139.186 76.8349C139.533 76.8349 139.88 76.6607 140.054 76.4865C140.401 76.3122 140.575 76.138 140.575 75.6153H141.789ZM129.12 77.7061V72.4792C129.12 72.305 129.12 72.1307 129.294 72.1307C129.467 71.9565 129.641 71.9565 129.815 71.9565H130.335V74.0473H132.765V71.9565H133.98V77.7061H132.765V75.0926H130.335V77.7061H129.12ZM123.567 77.7061V72.8277H121.831V72.4792C121.831 72.305 122.005 72.1307 122.005 72.1307C122.178 71.9565 122.352 71.9565 122.526 71.9565H126.517V72.8277H124.782V77.7061H123.567ZM115.236 77.7061V72.4792C115.236 72.305 115.236 72.1307 115.41 72.1307C115.584 71.9565 115.757 71.9565 115.931 71.9565H116.451V76.6607H119.228V77.7061H115.236ZM109.509 71.9565H110.377L112.46 77.7061H111.245L110.898 76.4865H108.642L108.294 77.7061H107.08L108.989 72.305C108.989 71.9565 109.162 71.9565 109.509 71.9565ZM109.683 73.0019L108.989 75.4411H110.551L109.683 73.0019ZM100.138 77.7061V72.4792C100.138 72.305 100.311 72.1307 100.311 72.1307C100.485 71.9565 100.658 71.9565 100.832 71.9565H104.303V72.8277H101.353V74.0473H103.609V74.57C103.609 74.7442 103.609 74.7442 103.435 74.9184C103.262 75.0926 103.088 75.0926 103.088 75.0926H101.353V76.6607H104.303V77.7061H100.138ZM92.6751 77.7061V72.4792C92.6751 72.305 92.8486 72.1307 92.8486 72.1307C93.0222 71.9565 93.1957 71.9565 93.3693 71.9565H93.8899V74.0473H96.3196V71.9565H97.5344V77.7061H96.3196V75.0926H93.8899V77.7061H92.6751ZM81.0473 77.7061V72.4792C81.0473 72.305 81.0473 72.1307 81.2208 72.1307C81.2208 71.9565 81.3944 71.9565 81.5679 71.9565H85.2125V72.8277H82.0886V74.0473H84.3447V74.57C84.3447 74.7442 84.3447 74.7442 84.1712 74.9184C84.1712 75.0926 83.9976 75.0926 83.8241 75.0926H82.0886V76.6607H85.2125V77.7061H81.0473ZM74.2789 77.7061V72.4792C74.2789 72.305 74.4524 72.1307 74.4524 72.1307C74.626 71.9565 74.7995 71.9565 74.9731 71.9565H75.4937V76.6607H78.4441V77.7061H74.2789ZM66.9898 77.7061V72.4792C66.9898 72.305 66.9898 72.1307 67.1634 72.1307C67.1634 71.9565 67.3369 71.9565 67.5105 71.9565H69.5931C70.2873 71.9565 70.6344 71.9565 70.9814 72.305C71.3285 72.4792 71.5021 72.8277 71.5021 73.3503C71.5021 73.6988 71.5021 73.873 71.3285 74.0473C71.155 74.2215 70.9814 74.3957 70.8079 74.57C71.155 74.7442 71.3285 74.9184 71.5021 75.0926C71.6756 75.2669 71.6756 75.6153 71.6756 75.9638C71.6756 76.4865 71.5021 76.8349 71.155 77.1834C70.8079 77.5318 70.2873 77.7061 69.5931 77.7061H66.9898ZM68.0311 74.0473H69.4195C69.7666 74.0473 69.9402 74.0473 70.1137 74.0473C70.2873 73.873 70.2873 73.6988 70.2873 73.5246C70.2873 73.3503 70.2873 73.1761 70.1137 73.0019C69.9402 73.0019 69.7666 72.8277 69.4195 72.8277H68.0311V74.0473ZM68.0311 76.6607H69.4195C69.7666 76.6607 70.1137 76.6607 70.2873 76.4865C70.4608 76.3122 70.4608 76.138 70.4608 75.9638C70.4608 75.6153 70.4608 75.4411 70.2873 75.2669C70.1137 75.0926 69.7666 75.0926 69.4195 75.0926H68.0311V76.6607ZM63.3453 77.7061V72.4792C63.3453 72.305 63.3453 72.1307 63.5188 72.1307C63.5188 71.9565 63.6924 71.9565 63.8659 71.9565H64.5601V77.7061H63.3453ZM55.8827 75.9638H57.0975C57.0975 76.138 57.2711 76.4865 57.4446 76.6607C57.6182 76.8349 57.9653 76.8349 58.3124 76.8349C58.6595 76.8349 59.0066 76.8349 59.1801 76.6607C59.3537 76.4865 59.5272 76.3122 59.5272 76.138C59.5272 75.7896 59.0066 75.4411 57.9653 75.2669C57.9653 75.2669 57.7917 75.2669 57.7917 75.0926C57.2711 75.0926 56.7504 74.9184 56.5769 74.7442C56.4033 74.7442 56.2298 74.57 56.2298 74.2215C56.0562 74.0473 56.0562 73.6988 56.0562 73.5246C56.0562 73.0019 56.2298 72.4792 56.5769 72.1307C56.924 71.7823 57.4446 71.7823 58.3124 71.7823C58.833 71.7823 59.5272 71.9565 59.8743 72.1307C60.2214 72.4792 60.395 73.0019 60.395 73.5246H59.7008C59.5272 73.5246 59.3537 73.3503 59.1801 73.1761C59.1801 73.0019 59.0066 73.0019 59.0066 72.8277C58.833 72.8277 58.4859 72.6534 58.1388 72.6534C57.7917 72.6534 57.6182 72.8277 57.4446 72.8277C57.2711 73.0019 57.0975 73.1761 57.0975 73.3503C57.0975 73.6988 57.4446 73.873 58.1388 74.0473C58.3124 74.0473 58.4859 74.2215 58.4859 74.2215C58.833 74.2215 59.0066 74.2215 59.0066 74.3957C59.1801 74.3957 59.3537 74.3957 59.3537 74.3957C59.5272 74.57 59.7008 74.57 59.8743 74.57C60.0479 74.7442 60.2214 74.9184 60.395 75.0926C60.5685 75.4411 60.5685 75.6153 60.5685 75.9638C60.5685 76.4865 60.395 77.0092 60.0479 77.3576C59.5272 77.7061 59.0066 77.8803 58.3124 77.8803C57.4446 77.8803 56.924 77.7061 56.5769 77.3576C56.2298 77.0092 55.8827 76.4865 55.8827 75.9638ZM48.5936 75.9638H49.6349C49.8085 76.138 49.8085 76.4865 50.1556 76.6607C50.3291 76.8349 50.6762 76.8349 51.0233 76.8349C51.3704 76.8349 51.7175 76.8349 51.8911 76.6607C52.0646 76.4865 52.0646 76.3122 52.0646 76.138C52.0646 75.7896 51.544 75.4411 50.5027 75.2669C50.5027 75.2669 50.5027 75.2669 50.3291 75.0926C49.8085 75.0926 49.4614 74.9184 49.2878 74.7442C49.1143 74.7442 48.9407 74.57 48.7672 74.2215C48.5936 74.0473 48.5936 73.6988 48.5936 73.5246C48.5936 73.0019 48.7672 72.4792 49.1143 72.1307C49.6349 71.7823 50.1556 71.7823 50.8498 71.7823C51.544 71.7823 52.0646 71.9565 52.4117 72.1307C52.7588 72.4792 53.1059 73.0019 53.1059 73.5246H52.4117C52.0646 73.5246 51.8911 73.3503 51.8911 73.1761C51.7175 73.0019 51.7175 73.0019 51.544 72.8277C51.3704 72.8277 51.0233 72.6534 50.6762 72.6534C50.5027 72.6534 50.1556 72.8277 49.982 72.8277C49.8085 73.0019 49.8085 73.1761 49.8085 73.3503C49.8085 73.6988 50.1556 73.873 50.6762 74.0473C51.0233 74.0473 51.0233 74.2215 51.1969 74.2215C51.3704 74.2215 51.544 74.2215 51.7175 74.3957C51.8911 74.3957 51.8911 74.3957 52.0646 74.3957C52.2382 74.57 52.4117 74.57 52.5853 74.57C52.7588 74.7442 52.9324 74.9184 53.1059 75.0926C53.1059 75.4411 53.2795 75.6153 53.2795 75.9638C53.2795 76.4865 53.1059 77.0092 52.5853 77.3576C52.2382 77.7061 51.7175 77.8803 50.8498 77.8803C50.1556 77.8803 49.6349 77.7061 49.2878 77.3576C48.7672 77.0092 48.5936 76.4865 48.5936 75.9638ZM41.6517 77.7061V72.4792C41.6517 72.305 41.8252 72.1307 41.8252 72.1307C41.9988 71.9565 42.1723 71.9565 42.3459 71.9565H45.9904V72.8277H42.8665V74.0473H45.1226V74.57C45.1226 74.7442 45.1226 74.7442 44.9491 74.9184C44.7756 75.0926 44.7756 75.0926 44.602 75.0926H42.8665V76.6607H45.9904V77.7061H41.6517ZM39.0484 75.6153C39.0484 76.3122 38.7013 76.8349 38.1807 77.1834C37.8336 77.7061 37.1394 77.8803 36.4452 77.8803C35.5775 77.8803 34.8833 77.5318 34.3626 77.0092C34.0155 76.4865 33.6684 75.7896 33.6684 74.7442C33.6684 73.6988 34.0155 73.0019 34.5362 72.4792C34.8833 71.9565 35.5775 71.7823 36.6187 71.7823C37.3129 71.7823 37.8336 71.9565 38.3542 72.305C38.7013 72.6534 39.0484 73.1761 39.0484 73.873H38.3542C38.0071 73.873 37.8336 73.6988 37.66 73.3503C37.66 73.3503 37.4865 73.1761 37.4865 73.0019C37.1394 72.8277 36.9658 72.8277 36.6187 72.8277C36.0981 72.8277 35.5775 73.0019 35.4039 73.3503C35.0568 73.6988 34.8833 74.2215 34.8833 74.7442C34.8833 75.4411 35.0568 75.9638 35.4039 76.3122C35.5775 76.6607 35.9246 76.8349 36.4452 76.8349C36.7923 76.8349 37.1394 76.6607 37.4865 76.4865C37.66 76.3122 37.8336 76.138 37.8336 75.6153H39.0484ZM31.2387 75.6153C31.0652 76.3122 30.8916 76.8349 30.371 77.1834C30.0239 77.7061 29.3297 77.8803 28.6355 77.8803C27.7677 77.8803 27.0736 77.5318 26.5529 77.0092C26.2058 76.4865 25.8587 75.7896 25.8587 74.7442C25.8587 73.6988 26.2058 73.0019 26.5529 72.4792C27.0736 71.9565 27.7677 71.7823 28.6355 71.7823C29.5032 71.7823 30.0239 71.9565 30.5445 72.305C30.8916 72.6534 31.0652 73.1761 31.2387 73.873H30.371C30.1974 73.873 30.0239 73.6988 29.8503 73.3503C29.8503 73.3503 29.6768 73.1761 29.6768 73.0019C29.3297 72.8277 29.1561 72.8277 28.6355 72.8277C28.1148 72.8277 27.7677 73.0019 27.5942 73.3503C27.2471 73.6988 27.0736 74.2215 27.0736 74.7442C27.0736 75.4411 27.2471 75.9638 27.5942 76.3122C27.7677 76.6607 28.1148 76.8349 28.6355 76.8349C28.9826 76.8349 29.3297 76.6607 29.5032 76.4865C29.8503 76.3122 29.8503 76.138 30.0239 75.6153H31.2387ZM20.4787 73.0019L19.7845 75.4411H21.3464L20.4787 73.0019Z" fill="#FEFEFE"/>
</svg>
