<svg width="724" height="1024" viewBox="0 0 724 1024" fill="none" xmlns="http://www.w3.org/2000/svg">
<path d="M0 0V1024H724V0H0ZM646.435 30.2133L698.088 70.8852V98.0772L646.435 57.4054V30.2133ZM646.435 84.3649L698.088 125.037V152.229L646.435 111.557V84.3649ZM86.089 783.223L103.307 796.703L51.6534 837.375L34.4356 823.895L86.089 783.223ZM25.7415 803.443V722.099L42.9593 708.619V789.963L25.7415 803.443ZM568.869 376.04L551.652 362.56L603.305 321.888L620.523 335.368L568.869 376.04ZM629.046 355.82V437.164L611.829 450.644V369.3L629.046 355.82ZM594.611 383.012V464.356L577.393 477.836V396.492L594.611 383.012ZM560.175 396.492V423.684L508.522 383.012V355.82L560.175 396.492ZM560.175 450.876V478.068L508.522 437.396V410.204L560.175 450.876ZM517.045 471.096L465.392 511.768L448.174 498.288L499.828 457.616L517.045 471.096ZM439.48 477.836V396.492L456.698 383.012V464.356L439.48 477.836ZM491.304 437.164L474.086 450.644V369.3L491.304 355.82V437.164ZM430.956 376.04L413.739 362.56L465.392 321.888L482.61 335.368L430.956 376.04ZM422.262 396.492V423.684L370.609 383.012V355.82L422.262 396.492ZM422.262 450.876V478.068L370.609 437.164V409.972L422.262 450.876ZM379.133 471.096L327.479 511.768L310.261 498.288L361.915 457.616L379.133 471.096ZM301.567 477.836V396.492L318.785 383.012V464.356L301.567 477.836ZM353.391 437.164L336.173 450.644V369.3L353.391 355.82V437.164ZM293.044 376.04L275.826 362.56L327.479 321.888L344.697 335.368L293.044 376.04ZM284.349 396.492V423.684L232.696 383.012V355.82L284.349 396.492ZM284.349 450.876V478.068L232.696 437.396V410.204L284.349 450.876ZM241.22 471.096L189.566 511.768L172.348 498.288L224.002 457.616L241.22 471.096ZM163.654 477.836V396.492L180.872 383.012V464.356L163.654 477.836ZM215.478 437.164L198.26 450.644V369.3L215.478 355.82V437.164ZM155.131 376.04L137.913 362.56L189.566 321.888L206.784 335.368L155.131 376.04ZM146.437 396.492V423.684L94.7831 383.012V355.82L146.437 396.492ZM146.437 450.876V478.068L94.7831 437.396V410.204L146.437 450.876ZM137.913 498.288L86.2595 538.96L69.0417 525.48L120.695 484.808L137.913 498.288ZM146.437 518.74V600.084L129.219 613.563V532.22L146.437 518.74ZM94.7831 559.412L112.001 545.932V627.276L94.7831 640.755V559.412ZM155.131 620.303L172.348 633.783L120.695 674.455L103.477 660.975L155.131 620.303ZM163.654 600.084V572.892L215.478 613.563V640.755L163.654 600.084ZM163.654 545.7V518.507L215.308 559.179V586.371L163.654 545.7ZM206.784 525.48L258.438 484.808L275.655 498.288L224.002 538.96L206.784 525.48ZM284.349 518.74V600.084L267.132 613.563V532.22L284.349 518.74ZM232.696 559.412L249.914 545.932V627.276L232.696 640.755V559.412ZM293.044 620.303L310.261 633.783L258.608 674.455L241.39 660.975L293.044 620.303ZM301.567 600.084V572.892L353.221 613.563V640.755L301.567 600.084ZM301.567 545.7V518.507L353.221 559.179V586.371L301.567 545.7ZM344.697 525.48L396.35 484.808L413.568 498.288L361.915 538.96L344.697 525.48ZM422.262 518.74V600.084L405.045 613.563V532.22L422.262 518.74ZM370.609 559.412L387.827 545.932V627.276L370.609 640.755V559.412ZM430.956 620.303L448.174 633.783L396.521 674.455L379.303 660.975L430.956 620.303ZM439.48 600.084V572.892L491.134 613.563V640.755L439.48 600.084ZM439.48 545.7V518.507L491.134 559.179V586.371L439.48 545.7ZM482.61 525.48L534.263 484.808L551.481 498.288L499.828 538.96L482.61 525.48ZM560.175 518.74V600.084L542.957 613.563V532.22L560.175 518.74ZM508.522 559.412L525.74 545.932V627.276L508.522 640.755V559.412ZM568.869 620.303L586.087 633.783L534.263 674.687L517.045 661.207L568.869 620.303ZM577.393 600.084V572.892L629.046 613.563V640.755L577.393 600.084ZM577.393 545.7V518.507L629.046 559.179V586.371L577.393 545.7ZM586.087 498.288L637.741 457.616L654.958 471.096L603.305 511.768L586.087 498.288ZM629.046 260.764L577.393 220.093V192.901L629.046 233.572V260.764ZM629.046 287.956V315.148L577.393 274.477V247.285L629.046 287.956ZM586.087 308.409L534.263 349.08L517.045 335.601L568.699 294.929L586.087 308.409ZM508.522 315.148V233.805L525.74 220.325V301.669L508.522 315.148ZM560.175 274.477L542.957 287.956V206.613L560.175 193.133V274.477ZM499.828 213.353L482.61 199.873L534.263 159.201L551.481 172.681L499.828 213.353ZM491.304 233.572V260.764L439.651 220.093V192.901L491.304 233.572ZM491.304 287.956V315.148L439.651 274.477V247.285L491.304 287.956ZM448.174 308.409L396.521 349.08L379.303 335.601L430.956 294.929L448.174 308.409ZM370.609 315.148V233.805L387.827 220.325V301.669L370.609 315.148ZM422.262 274.477L405.045 287.956V206.613L422.262 193.133V274.477ZM361.915 213.353L344.697 199.873L396.35 159.201L413.568 172.681L361.915 213.353ZM353.391 233.572V260.764L301.738 220.093V192.901L353.391 233.572ZM353.391 287.956V315.148L301.738 274.477V247.285L353.391 287.956ZM310.261 308.409L258.608 349.08L241.39 335.601L293.044 294.929L310.261 308.409ZM232.696 315.148V233.805L249.914 220.325V301.669L232.696 315.148ZM284.349 274.477L267.132 287.956V206.613L284.349 193.133V274.477ZM224.002 213.353L206.784 199.873L258.438 159.201L275.655 172.681L224.002 213.353ZM215.478 233.572V260.764L163.825 220.093V192.901L215.478 233.572ZM215.478 287.956V315.148L163.825 274.477V247.285L215.478 287.956ZM172.348 308.409L120.695 349.08L103.477 335.601L155.131 294.929L172.348 308.409ZM94.7831 315.148V233.805L112.001 220.325V301.669L94.7831 315.148ZM146.437 274.477L129.219 287.956V206.613L146.437 193.133V274.477ZM86.089 213.353L68.8712 199.873L120.525 159.201L137.742 172.681L86.089 213.353ZM77.5654 233.572V260.764L25.9119 220.093V192.901L77.5654 233.572ZM77.5654 287.956V315.148L25.9119 274.477V247.285L77.5654 287.956ZM86.089 457.616L103.307 471.096L51.6534 511.768L34.4356 498.288L86.089 457.616ZM60.3475 450.876V369.532L77.5654 356.053V437.396L60.3475 450.876ZM42.9593 464.356L25.7415 477.836V396.492L42.9593 383.012V464.356ZM77.5654 559.412V586.604L25.9119 545.932V518.74L77.5654 559.412ZM77.5654 613.563V640.755L25.9119 600.084V572.892L77.5654 613.563ZM60.3475 776.483V695.139L77.5654 681.66V763.003L60.3475 776.483ZM94.7831 762.771V735.579L146.437 776.251V803.443L94.7831 762.771ZM94.7831 708.619V681.427L146.437 722.099V749.291L94.7831 708.619ZM137.913 688.167L189.566 647.495L206.784 660.975L155.131 701.879L137.913 688.167ZM215.478 681.427V762.771L198.26 776.251V694.907L215.478 681.427ZM163.654 722.099L180.872 708.619V789.963L163.654 803.443V722.099ZM224.002 783.223L241.22 796.703L189.566 837.375L172.348 823.895L224.002 783.223ZM232.696 762.771V735.579L284.349 776.251V803.443L232.696 762.771ZM232.696 708.619V681.427L284.349 722.099V749.291L232.696 708.619ZM275.655 688.167L327.309 647.495L344.526 660.975L293.044 701.879L275.655 688.167ZM353.391 681.427V762.771L336.173 776.251V694.907L353.391 681.427ZM301.567 722.099L318.785 708.619V789.963L301.567 803.443V722.099ZM361.915 783.223L379.133 796.703L327.479 837.375L310.261 823.895L361.915 783.223ZM370.609 762.771V735.579L422.262 776.251V803.443L370.609 762.771ZM370.609 708.619V681.427L422.262 722.099V749.291L370.609 708.619ZM413.739 688.167L465.392 647.495L482.61 660.975L430.956 701.879L413.739 688.167ZM491.304 681.427V762.771L474.086 776.251V694.907L491.304 681.427ZM439.48 722.099L456.698 708.619V789.963L439.48 803.443V722.099ZM499.828 783.223L517.045 796.703L465.392 837.375L448.174 823.895L499.828 783.223ZM508.522 762.771V735.579L560.175 776.251V803.443L508.522 762.771ZM508.522 708.619V681.427L560.175 722.099V749.291L508.522 708.619ZM551.481 688.167L603.134 647.495L620.352 660.975L568.869 701.879L551.481 688.167ZM629.046 681.427V762.771L611.829 776.251V694.907L629.046 681.427ZM577.393 722.099L594.611 708.619V789.963L577.393 803.443V722.099ZM637.741 783.223L654.958 796.703L603.305 837.375L586.087 823.895L637.741 783.223ZM646.435 762.771V735.579L698.088 776.251V803.443L646.435 762.771ZM646.435 708.619V681.427L698.088 722.099V749.291L646.435 708.619ZM637.741 538.96L620.523 525.48L672.176 484.808L689.394 498.288L637.741 538.96ZM663.652 545.7V627.043L646.435 640.523V559.179L663.652 545.7ZM680.87 532.22L698.088 518.74V600.084L680.87 613.563V532.22ZM646.435 437.164V409.972L698.088 450.644V477.836L646.435 437.164ZM646.435 383.012V355.82L698.088 396.492V423.684L646.435 383.012ZM637.741 213.353L620.523 199.873L672.176 159.201L689.394 172.681L637.741 213.353ZM663.652 220.093V301.436L646.435 314.916V233.572L663.652 220.093ZM680.87 206.613L698.088 193.133V274.477L680.87 287.956V206.613ZM654.958 145.489L603.305 186.161L586.087 172.681L637.741 132.009L654.958 145.489ZM577.393 152.229V70.8852L594.611 57.4054V138.749L577.393 152.229ZM611.829 43.6931L629.046 30.2133V111.557L611.829 125.037V43.6931ZM568.869 23.4734H603.305L568.869 50.6654L551.652 37.1857L568.869 23.4734ZM508.522 30.2133L560.175 70.8852V98.0772L508.522 57.4054V30.2133ZM508.522 84.3649L560.175 125.037V152.229L508.522 111.557V84.3649ZM517.045 145.489L465.392 186.161L448.174 172.681L499.828 132.009L517.045 145.489ZM439.48 152.229V70.8852L456.698 57.4054V138.749L439.48 152.229ZM473.916 43.6931L491.134 30.2133V111.557L473.916 125.037V43.6931ZM430.956 23.4734H465.392L430.956 50.6654L413.739 37.1857L430.956 23.4734ZM370.609 30.2133L422.262 70.8852V98.0772L370.609 57.4054V30.2133ZM370.609 84.3649L422.262 125.037V152.229L370.609 111.557V84.3649ZM379.133 145.489L327.479 186.161L310.261 172.681L361.915 132.009L379.133 145.489ZM301.567 152.229V70.8852L318.785 57.4054V138.749L301.567 152.229ZM336.003 43.6931L353.221 30.2133V111.557L336.003 125.037V43.6931ZM293.044 23.4734H327.479L293.044 50.6654L275.826 37.1857L293.044 23.4734ZM232.696 30.2133L284.349 70.8852V98.0772L232.696 57.4054V30.2133ZM232.696 84.3649L284.349 125.037V152.229L232.696 111.557V84.3649ZM241.22 145.489L189.566 186.161L172.348 172.681L224.002 132.009L241.22 145.489ZM163.654 152.229V70.8852L180.872 57.4054V138.749L163.654 152.229ZM198.09 43.6931L215.478 30.2133V111.557L198.26 125.037V43.6931H198.09ZM155.131 23.4734H189.566L155.131 50.6654L137.913 37.1857L155.131 23.4734ZM94.7831 30.2133L146.437 70.8852V98.0772L94.7831 57.4054V30.2133ZM94.7831 84.3649L146.437 125.037V152.229L94.7831 111.557V84.3649ZM103.307 145.489L51.6534 186.161L34.4356 172.681L86.089 132.009L103.307 145.489ZM25.7415 152.229V70.8852L42.9593 57.4054V138.749L25.7415 152.229ZM60.3475 43.6931L77.5654 30.2133V111.557L60.3475 125.037V43.6931ZM17.2178 23.4734H51.6534L17.2178 50.6654V23.4734ZM17.2178 294.696L34.4356 308.176L17.2178 321.656V294.696ZM17.2178 349.08L51.6534 321.888L68.8712 335.368L17.2178 376.04V349.08ZM17.2178 620.303L34.4356 633.783L17.2178 647.263V620.303ZM17.2178 674.687L51.6534 647.495L68.8712 660.975L17.2178 701.879V674.687ZM17.2178 945.91L34.4356 959.39L17.2178 972.87V945.91ZM51.6534 1000.29H17.2178L51.6534 973.102L68.8712 986.582L51.6534 1000.29ZM77.5654 966.362L25.9119 925.69V898.498L77.5654 939.17V966.362ZM77.5654 912.211L25.9119 871.539V844.347L77.5654 885.019V912.211ZM68.8712 851.087L120.525 810.415L137.742 823.895L86.089 864.567L68.8712 851.087ZM146.437 844.347V925.69L129.219 939.17V857.827L146.437 844.347ZM94.7831 885.019L112.001 871.539V952.882L94.7831 966.362V885.019ZM103.307 986.814L154.96 946.143L172.178 959.622L120.525 1000.29L103.307 986.814ZM189.566 1000.29H155.131L189.566 973.102L206.784 986.582L189.566 1000.29ZM215.478 966.362L163.825 925.69V898.498L215.478 939.17V966.362ZM215.478 912.211L163.825 871.539V844.347L215.478 885.019V912.211ZM206.784 851.087L258.438 810.415L275.655 823.895L224.002 864.567L206.784 851.087ZM284.349 844.347V925.69L267.132 939.17V857.827L284.349 844.347ZM232.696 885.019L249.914 871.539V952.882L232.696 966.362V885.019ZM241.22 986.814L292.873 946.143L310.091 959.622L258.438 1000.29L241.22 986.814ZM327.479 1000.29H293.044L327.479 973.102L344.697 986.582L327.479 1000.29ZM353.391 966.362L301.738 925.69V898.498L353.391 939.17V966.362ZM353.391 912.211L301.738 871.539V844.347L353.391 885.019V912.211ZM344.697 851.087L396.35 810.415L413.568 823.895L361.915 864.567L344.697 851.087ZM422.262 844.347V925.69L405.045 939.17V857.827L422.262 844.347ZM370.609 885.019L387.827 871.539V952.882L370.609 966.362V885.019ZM379.133 986.814L430.786 946.143L448.004 959.622L396.35 1000.29L379.133 986.814ZM465.392 1000.29H430.956L465.392 973.102L482.61 986.582L465.392 1000.29ZM491.304 966.362L439.651 925.69V898.498L491.304 939.17V966.362ZM491.304 912.211L439.651 871.539V844.347L491.304 885.019V912.211ZM482.61 851.087L534.263 810.415L551.481 823.895L499.828 864.567L482.61 851.087ZM560.175 844.347V925.69L542.957 939.17V857.827L560.175 844.347ZM508.522 885.019L525.74 871.539V952.882L508.522 966.362V885.019ZM517.045 986.814L568.699 946.143L585.917 959.622L534.263 1000.29L517.045 986.814ZM603.305 1000.29H568.869L603.305 973.102L620.523 986.582L603.305 1000.29ZM629.046 966.362L577.393 925.69V898.498L629.046 939.17V966.362ZM629.046 912.211L577.393 871.539V844.347L629.046 885.019V912.211ZM620.523 851.087L672.176 810.415L689.394 823.895L637.741 864.567L620.523 851.087ZM698.088 844.347V925.69L680.87 939.17V857.827L698.088 844.347ZM646.435 885.019L663.652 871.539V952.882L646.435 966.362V885.019ZM706.782 973.102L672.347 1000.29L655.129 986.814L706.782 946.143V973.102ZM706.782 701.879L689.564 688.4L706.782 674.92V701.879ZM706.782 647.495L672.347 674.687L655.129 661.207L706.782 620.536V647.495ZM706.782 376.04L689.394 362.56L706.612 349.08V376.04H706.782ZM706.782 321.888L672.347 349.08L655.129 335.601L706.782 294.929V321.888ZM706.782 50.4331L689.564 36.9533L706.782 23.4734V50.4331Z" fill="#F8F8F8"/>
</svg>
